<mxfile host="app.diagrams.net" agent="Mozilla/5.0 (Windows NT 10.0; Win64; x64) AppleWebKit/537.36 (KHTML, like Gecko) Chrome/135.0.0.0 Safari/537.36" version="26.2.10">
  <diagram name="Page-1" id="S7FI9LTIhzjFiiUoPjGG">
    <mxGraphModel dx="788" dy="451" grid="1" gridSize="10" guides="1" tooltips="1" connect="1" arrows="1" fold="1" page="1" pageScale="1" pageWidth="850" pageHeight="1100" math="0" shadow="0">
      <root>
        <mxCell id="0" />
        <mxCell id="1" parent="0" />
        <mxCell id="HuQckkpRFK6H4ctuC4L1-38" value="" style="rounded=0;whiteSpace=wrap;html=1;strokeColor=default;align=center;verticalAlign=middle;fontFamily=Helvetica;fontSize=12;fontColor=default;fontStyle=1;fillColor=default;" vertex="1" parent="1">
          <mxGeometry x="40" y="90" width="780" height="230" as="geometry" />
        </mxCell>
        <mxCell id="kGrzjkYf1BBTeMbl1JbP-10" style="edgeStyle=orthogonalEdgeStyle;rounded=0;orthogonalLoop=1;jettySize=auto;html=1;" parent="1" source="kGrzjkYf1BBTeMbl1JbP-4" target="kGrzjkYf1BBTeMbl1JbP-5" edge="1">
          <mxGeometry relative="1" as="geometry" />
        </mxCell>
        <mxCell id="kGrzjkYf1BBTeMbl1JbP-4" value="" style="image;aspect=fixed;html=1;points=[];align=center;fontSize=12;image=img/lib/azure2/databases/Azure_Database_PostgreSQL_Server.svg;" parent="1" vertex="1">
          <mxGeometry x="456" y="127" width="48" height="64" as="geometry" />
        </mxCell>
        <mxCell id="kGrzjkYf1BBTeMbl1JbP-5" value="" style="image;aspect=fixed;html=1;points=[];align=center;fontSize=12;image=img/lib/azure2/power_platform/PowerBI.svg;" parent="1" vertex="1">
          <mxGeometry x="670" y="110" width="73.5" height="98" as="geometry" />
        </mxCell>
        <mxCell id="kGrzjkYf1BBTeMbl1JbP-14" value="&lt;font style=&quot;font-size: 14px;&quot;&gt;&lt;b&gt;Data Analysis&lt;/b&gt;&lt;/font&gt;" style="text;html=1;align=center;verticalAlign=middle;whiteSpace=wrap;rounded=0;" parent="1" vertex="1">
          <mxGeometry x="675.5" y="220" width="60" height="30" as="geometry" />
        </mxCell>
        <mxCell id="k6-DKNF9NdETZD6oDeBL-2" value="&lt;font face=&quot;Comic Sans MS&quot; style=&quot;font-size: 18px;&quot;&gt;Data Architecture&lt;/font&gt;" style="text;html=1;align=center;verticalAlign=middle;whiteSpace=wrap;rounded=0;" parent="1" vertex="1">
          <mxGeometry x="15" y="30" width="260" height="30" as="geometry" />
        </mxCell>
        <mxCell id="HuQckkpRFK6H4ctuC4L1-6" value="" style="group" vertex="1" connectable="0" parent="1">
          <mxGeometry x="50" y="130" width="90" height="90" as="geometry" />
        </mxCell>
        <mxCell id="HuQckkpRFK6H4ctuC4L1-1" value="" style="whiteSpace=wrap;html=1;aspect=fixed;strokeColor=default;align=center;verticalAlign=middle;fontFamily=Helvetica;fontSize=12;fontColor=default;fontStyle=1;fillColor=default;" vertex="1" parent="HuQckkpRFK6H4ctuC4L1-6">
          <mxGeometry width="90" height="90" as="geometry" />
        </mxCell>
        <mxCell id="kGrzjkYf1BBTeMbl1JbP-1" value="" style="shape=image;html=1;verticalAlign=top;verticalLabelPosition=bottom;labelBackgroundColor=#ffffff;imageAspect=0;aspect=fixed;image=https://cdn0.iconfinder.com/data/icons/socialize-part-3-icons-set/128/wikipedia.png" parent="HuQckkpRFK6H4ctuC4L1-6" vertex="1">
          <mxGeometry x="15" y="10" width="60" height="60" as="geometry" />
        </mxCell>
        <mxCell id="HuQckkpRFK6H4ctuC4L1-22" value="wiki web page" style="text;html=1;align=center;verticalAlign=middle;whiteSpace=wrap;rounded=0;fontFamily=Helvetica;fontSize=6;fontColor=default;fontStyle=1;" vertex="1" parent="HuQckkpRFK6H4ctuC4L1-6">
          <mxGeometry y="60" width="90" height="30" as="geometry" />
        </mxCell>
        <mxCell id="HuQckkpRFK6H4ctuC4L1-12" style="edgeStyle=orthogonalEdgeStyle;rounded=0;orthogonalLoop=1;jettySize=auto;html=1;" edge="1" parent="1">
          <mxGeometry relative="1" as="geometry">
            <mxPoint x="140" y="169" as="sourcePoint" />
            <mxPoint x="453" y="169" as="targetPoint" />
          </mxGeometry>
        </mxCell>
        <mxCell id="HuQckkpRFK6H4ctuC4L1-19" value="" style="shape=image;html=1;verticalAlign=top;verticalLabelPosition=bottom;labelBackgroundColor=#ffffff;imageAspect=0;aspect=fixed;image=https://cdn1.iconfinder.com/data/icons/ionicons-fill-vol-2/512/logo-python-128.png;strokeColor=default;align=center;fontFamily=Helvetica;fontSize=12;fontColor=default;fontStyle=1;fillColor=default;" vertex="1" parent="1">
          <mxGeometry x="300" y="119" width="39" height="39" as="geometry" />
        </mxCell>
        <mxCell id="HuQckkpRFK6H4ctuC4L1-20" value="Python SCript" style="text;html=1;align=center;verticalAlign=middle;whiteSpace=wrap;rounded=0;fontFamily=Helvetica;fontSize=7;fontColor=default;fontStyle=1;" vertex="1" parent="1">
          <mxGeometry x="290" y="144" width="60" height="30" as="geometry" />
        </mxCell>
        <mxCell id="HuQckkpRFK6H4ctuC4L1-24" value="Postgres DB" style="text;html=1;align=center;verticalAlign=middle;whiteSpace=wrap;rounded=0;fontFamily=Helvetica;fontSize=9;fontColor=default;fontStyle=1;" vertex="1" parent="1">
          <mxGeometry x="504" y="128" width="60" height="30" as="geometry" />
        </mxCell>
        <mxCell id="HuQckkpRFK6H4ctuC4L1-25" value="PowerBI" style="text;html=1;align=center;verticalAlign=middle;whiteSpace=wrap;rounded=0;fontFamily=Helvetica;fontSize=9;fontColor=default;fontStyle=1;" vertex="1" parent="1">
          <mxGeometry x="660" y="110" width="60" height="30" as="geometry" />
        </mxCell>
        <mxCell id="HuQckkpRFK6H4ctuC4L1-28" value="" style="endArrow=none;html=1;rounded=0;fontFamily=Helvetica;fontSize=12;fontColor=default;fontStyle=1;" edge="1" parent="1">
          <mxGeometry width="50" height="50" relative="1" as="geometry">
            <mxPoint x="103" y="260" as="sourcePoint" />
            <mxPoint x="303" y="260" as="targetPoint" />
            <Array as="points">
              <mxPoint x="143" y="260" />
            </Array>
          </mxGeometry>
        </mxCell>
        <mxCell id="HuQckkpRFK6H4ctuC4L1-29" value="" style="endArrow=classic;html=1;rounded=0;fontFamily=Helvetica;fontSize=12;fontColor=default;fontStyle=1;" edge="1" parent="1">
          <mxGeometry width="50" height="50" relative="1" as="geometry">
            <mxPoint x="103" y="260" as="sourcePoint" />
            <mxPoint x="103" y="240" as="targetPoint" />
          </mxGeometry>
        </mxCell>
        <mxCell id="HuQckkpRFK6H4ctuC4L1-30" value="" style="endArrow=classic;html=1;rounded=0;fontFamily=Helvetica;fontSize=12;fontColor=default;fontStyle=1;" edge="1" parent="1">
          <mxGeometry width="50" height="50" relative="1" as="geometry">
            <mxPoint x="302" y="259" as="sourcePoint" />
            <mxPoint x="302" y="239" as="targetPoint" />
            <Array as="points">
              <mxPoint x="302" y="249" />
            </Array>
          </mxGeometry>
        </mxCell>
        <mxCell id="HuQckkpRFK6H4ctuC4L1-31" value="" style="endArrow=none;html=1;rounded=0;fontFamily=Helvetica;fontSize=12;fontColor=default;fontStyle=1;" edge="1" parent="1">
          <mxGeometry width="50" height="50" relative="1" as="geometry">
            <mxPoint x="311" y="260" as="sourcePoint" />
            <mxPoint x="490" y="259" as="targetPoint" />
            <Array as="points">
              <mxPoint x="351" y="260" />
            </Array>
          </mxGeometry>
        </mxCell>
        <mxCell id="HuQckkpRFK6H4ctuC4L1-32" value="" style="endArrow=classic;html=1;rounded=0;fontFamily=Helvetica;fontSize=12;fontColor=default;fontStyle=1;" edge="1" parent="1">
          <mxGeometry width="50" height="50" relative="1" as="geometry">
            <mxPoint x="311" y="259" as="sourcePoint" />
            <mxPoint x="311" y="239" as="targetPoint" />
          </mxGeometry>
        </mxCell>
        <mxCell id="HuQckkpRFK6H4ctuC4L1-33" value="" style="endArrow=classic;html=1;rounded=0;fontFamily=Helvetica;fontSize=12;fontColor=default;fontStyle=1;" edge="1" parent="1">
          <mxGeometry width="50" height="50" relative="1" as="geometry">
            <mxPoint x="490" y="259" as="sourcePoint" />
            <mxPoint x="490" y="239" as="targetPoint" />
            <Array as="points">
              <mxPoint x="490" y="249" />
            </Array>
          </mxGeometry>
        </mxCell>
        <mxCell id="HuQckkpRFK6H4ctuC4L1-34" value="Extraction" style="text;html=1;align=center;verticalAlign=middle;whiteSpace=wrap;rounded=0;fontFamily=Helvetica;fontSize=12;fontColor=default;fontStyle=1;" vertex="1" parent="1">
          <mxGeometry x="65" y="270" width="60" height="30" as="geometry" />
        </mxCell>
        <mxCell id="HuQckkpRFK6H4ctuC4L1-35" value="Transformation" style="text;html=1;align=center;verticalAlign=middle;whiteSpace=wrap;rounded=0;fontFamily=Helvetica;fontSize=12;fontColor=default;fontStyle=1;" vertex="1" parent="1">
          <mxGeometry x="279" y="273" width="60" height="30" as="geometry" />
        </mxCell>
        <mxCell id="HuQckkpRFK6H4ctuC4L1-36" value="Loading" style="text;html=1;align=center;verticalAlign=middle;whiteSpace=wrap;rounded=0;fontFamily=Helvetica;fontSize=12;fontColor=default;fontStyle=1;" vertex="1" parent="1">
          <mxGeometry x="456" y="270" width="60" height="30" as="geometry" />
        </mxCell>
      </root>
    </mxGraphModel>
  </diagram>
</mxfile>
